<mxfile host="app.diagrams.net" modified="2021-01-27T07:12:30.014Z" agent="5.0 (Windows NT 10.0; Win64; x64) AppleWebKit/537.36 (KHTML, like Gecko) Chrome/88.0.4324.104 Safari/537.36" etag="qiBKZOrXIOGFT3XfFtXT" version="14.1.9" type="github">
  <diagram id="oN-b47ausUEQ-Q-i7r5N" name="Page-1">
    <mxGraphModel dx="1422" dy="762" grid="1" gridSize="10" guides="1" tooltips="1" connect="1" arrows="1" fold="1" page="1" pageScale="1" pageWidth="827" pageHeight="1169" math="0" shadow="0">
      <root>
        <mxCell id="0" />
        <mxCell id="1" parent="0" />
        <mxCell id="i5QBsUKs3waU7UuBkeqk-12" value="" style="edgeStyle=orthogonalEdgeStyle;rounded=0;orthogonalLoop=1;jettySize=auto;html=1;" edge="1" parent="1" source="EWtavilVzIh3BYYIPG3K-1" target="i5QBsUKs3waU7UuBkeqk-1">
          <mxGeometry relative="1" as="geometry" />
        </mxCell>
        <mxCell id="EWtavilVzIh3BYYIPG3K-1" value="&lt;font style=&quot;vertical-align: inherit&quot;&gt;&lt;font style=&quot;vertical-align: inherit&quot;&gt;&lt;font style=&quot;vertical-align: inherit&quot;&gt;&lt;font style=&quot;vertical-align: inherit&quot;&gt;&lt;font style=&quot;vertical-align: inherit&quot;&gt;&lt;font style=&quot;vertical-align: inherit&quot;&gt;游戏主界面&lt;/font&gt;&lt;/font&gt;&lt;/font&gt;&lt;/font&gt;&lt;/font&gt;&lt;/font&gt;" style="rounded=0;whiteSpace=wrap;html=1;" parent="1" vertex="1">
          <mxGeometry x="60" y="30" width="120" height="60" as="geometry" />
        </mxCell>
        <mxCell id="i5QBsUKs3waU7UuBkeqk-13" value="" style="edgeStyle=orthogonalEdgeStyle;rounded=0;orthogonalLoop=1;jettySize=auto;html=1;" edge="1" parent="1" source="i5QBsUKs3waU7UuBkeqk-1" target="i5QBsUKs3waU7UuBkeqk-2">
          <mxGeometry relative="1" as="geometry" />
        </mxCell>
        <mxCell id="i5QBsUKs3waU7UuBkeqk-1" value="&lt;font style=&quot;vertical-align: inherit&quot;&gt;&lt;font style=&quot;vertical-align: inherit&quot;&gt;&lt;font style=&quot;vertical-align: inherit&quot;&gt;&lt;font style=&quot;vertical-align: inherit&quot;&gt;点击开始按钮&lt;/font&gt;&lt;/font&gt;&lt;/font&gt;&lt;/font&gt;" style="rounded=0;whiteSpace=wrap;html=1;" vertex="1" parent="1">
          <mxGeometry x="220" y="30" width="120" height="60" as="geometry" />
        </mxCell>
        <mxCell id="i5QBsUKs3waU7UuBkeqk-14" value="" style="edgeStyle=orthogonalEdgeStyle;rounded=0;orthogonalLoop=1;jettySize=auto;html=1;" edge="1" parent="1" source="i5QBsUKs3waU7UuBkeqk-2" target="i5QBsUKs3waU7UuBkeqk-3">
          <mxGeometry relative="1" as="geometry" />
        </mxCell>
        <mxCell id="i5QBsUKs3waU7UuBkeqk-2" value="&lt;font style=&quot;vertical-align: inherit&quot;&gt;&lt;font style=&quot;vertical-align: inherit&quot;&gt;&lt;font style=&quot;vertical-align: inherit&quot;&gt;&lt;font style=&quot;vertical-align: inherit&quot;&gt;&lt;font style=&quot;vertical-align: inherit&quot;&gt;&lt;font style=&quot;vertical-align: inherit&quot;&gt;当前关卡界面&lt;/font&gt;&lt;/font&gt;&lt;/font&gt;&lt;/font&gt;&lt;/font&gt;&lt;/font&gt;" style="rounded=0;whiteSpace=wrap;html=1;" vertex="1" parent="1">
          <mxGeometry x="380" y="30" width="120" height="60" as="geometry" />
        </mxCell>
        <mxCell id="i5QBsUKs3waU7UuBkeqk-15" value="" style="edgeStyle=orthogonalEdgeStyle;rounded=0;orthogonalLoop=1;jettySize=auto;html=1;" edge="1" parent="1" source="i5QBsUKs3waU7UuBkeqk-3" target="i5QBsUKs3waU7UuBkeqk-4">
          <mxGeometry relative="1" as="geometry" />
        </mxCell>
        <mxCell id="i5QBsUKs3waU7UuBkeqk-3" value="&lt;font style=&quot;vertical-align: inherit&quot;&gt;&lt;font style=&quot;vertical-align: inherit&quot;&gt;点击屏幕任意位置&lt;/font&gt;&lt;/font&gt;" style="rounded=0;whiteSpace=wrap;html=1;" vertex="1" parent="1">
          <mxGeometry x="540" y="30" width="120" height="60" as="geometry" />
        </mxCell>
        <mxCell id="i5QBsUKs3waU7UuBkeqk-16" value="" style="edgeStyle=orthogonalEdgeStyle;rounded=0;orthogonalLoop=1;jettySize=auto;html=1;exitX=0.5;exitY=1;exitDx=0;exitDy=0;" edge="1" parent="1" source="i5QBsUKs3waU7UuBkeqk-4" target="i5QBsUKs3waU7UuBkeqk-7">
          <mxGeometry relative="1" as="geometry" />
        </mxCell>
        <mxCell id="i5QBsUKs3waU7UuBkeqk-4" value="&lt;font style=&quot;vertical-align: inherit&quot;&gt;&lt;font style=&quot;vertical-align: inherit&quot;&gt;游戏开始&lt;/font&gt;&lt;/font&gt;" style="rounded=0;whiteSpace=wrap;html=1;" vertex="1" parent="1">
          <mxGeometry x="925" y="30" width="120" height="60" as="geometry" />
        </mxCell>
        <mxCell id="i5QBsUKs3waU7UuBkeqk-10" value="" style="edgeStyle=orthogonalEdgeStyle;rounded=0;orthogonalLoop=1;jettySize=auto;html=1;" edge="1" parent="1" source="i5QBsUKs3waU7UuBkeqk-7" target="i5QBsUKs3waU7UuBkeqk-8">
          <mxGeometry relative="1" as="geometry" />
        </mxCell>
        <mxCell id="i5QBsUKs3waU7UuBkeqk-11" value="" style="edgeStyle=orthogonalEdgeStyle;rounded=0;orthogonalLoop=1;jettySize=auto;html=1;" edge="1" parent="1" source="i5QBsUKs3waU7UuBkeqk-7" target="i5QBsUKs3waU7UuBkeqk-9">
          <mxGeometry relative="1" as="geometry">
            <mxPoint x="835" y="210" as="targetPoint" />
          </mxGeometry>
        </mxCell>
        <mxCell id="i5QBsUKs3waU7UuBkeqk-7" value="&lt;font style=&quot;vertical-align: inherit&quot;&gt;&lt;font style=&quot;vertical-align: inherit&quot;&gt;&lt;font style=&quot;vertical-align: inherit&quot;&gt;&lt;font style=&quot;vertical-align: inherit&quot;&gt;小球能否触碰到奖杯&lt;/font&gt;&lt;/font&gt;&lt;/font&gt;&lt;/font&gt;" style="rhombus;whiteSpace=wrap;html=1;" vertex="1" parent="1">
          <mxGeometry x="905" y="170" width="160" height="80" as="geometry" />
        </mxCell>
        <mxCell id="i5QBsUKs3waU7UuBkeqk-34" style="edgeStyle=orthogonalEdgeStyle;rounded=0;orthogonalLoop=1;jettySize=auto;html=1;" edge="1" parent="1" source="i5QBsUKs3waU7UuBkeqk-8" target="i5QBsUKs3waU7UuBkeqk-33">
          <mxGeometry relative="1" as="geometry" />
        </mxCell>
        <mxCell id="i5QBsUKs3waU7UuBkeqk-8" value="&lt;font style=&quot;vertical-align: inherit&quot;&gt;&lt;font style=&quot;vertical-align: inherit&quot;&gt;游戏胜利&lt;/font&gt;&lt;/font&gt;" style="rounded=0;whiteSpace=wrap;html=1;" vertex="1" parent="1">
          <mxGeometry x="925" y="340" width="120" height="60" as="geometry" />
        </mxCell>
        <mxCell id="i5QBsUKs3waU7UuBkeqk-31" style="edgeStyle=orthogonalEdgeStyle;rounded=0;orthogonalLoop=1;jettySize=auto;html=1;exitX=0.5;exitY=1;exitDx=0;exitDy=0;entryX=0.5;entryY=0;entryDx=0;entryDy=0;" edge="1" parent="1" source="i5QBsUKs3waU7UuBkeqk-9" target="i5QBsUKs3waU7UuBkeqk-17">
          <mxGeometry relative="1" as="geometry" />
        </mxCell>
        <mxCell id="i5QBsUKs3waU7UuBkeqk-9" value="&lt;font style=&quot;vertical-align: inherit&quot;&gt;&lt;font style=&quot;vertical-align: inherit&quot;&gt;游戏失败&lt;/font&gt;&lt;/font&gt;" style="rounded=0;whiteSpace=wrap;html=1;" vertex="1" parent="1">
          <mxGeometry x="655" y="180" width="120" height="60" as="geometry" />
        </mxCell>
        <mxCell id="i5QBsUKs3waU7UuBkeqk-27" style="edgeStyle=orthogonalEdgeStyle;rounded=0;orthogonalLoop=1;jettySize=auto;html=1;exitX=0;exitY=0.5;exitDx=0;exitDy=0;" edge="1" parent="1" source="i5QBsUKs3waU7UuBkeqk-17" target="i5QBsUKs3waU7UuBkeqk-21">
          <mxGeometry relative="1" as="geometry" />
        </mxCell>
        <mxCell id="i5QBsUKs3waU7UuBkeqk-32" style="edgeStyle=orthogonalEdgeStyle;rounded=0;orthogonalLoop=1;jettySize=auto;html=1;" edge="1" parent="1" source="i5QBsUKs3waU7UuBkeqk-17" target="i5QBsUKs3waU7UuBkeqk-18">
          <mxGeometry relative="1" as="geometry" />
        </mxCell>
        <mxCell id="i5QBsUKs3waU7UuBkeqk-17" value="&lt;font style=&quot;vertical-align: inherit&quot;&gt;&lt;font style=&quot;vertical-align: inherit&quot;&gt;&lt;font style=&quot;vertical-align: inherit&quot;&gt;&lt;font style=&quot;vertical-align: inherit&quot;&gt;是否选择跳关或复活&lt;/font&gt;&lt;/font&gt;&lt;/font&gt;&lt;/font&gt;" style="rhombus;whiteSpace=wrap;html=1;" vertex="1" parent="1">
          <mxGeometry x="640" y="330" width="150" height="80" as="geometry" />
        </mxCell>
        <mxCell id="i5QBsUKs3waU7UuBkeqk-35" style="edgeStyle=orthogonalEdgeStyle;rounded=0;orthogonalLoop=1;jettySize=auto;html=1;entryX=0;entryY=0.75;entryDx=0;entryDy=0;exitX=0.5;exitY=1;exitDx=0;exitDy=0;" edge="1" parent="1" source="i5QBsUKs3waU7UuBkeqk-18" target="i5QBsUKs3waU7UuBkeqk-33">
          <mxGeometry relative="1" as="geometry" />
        </mxCell>
        <mxCell id="i5QBsUKs3waU7UuBkeqk-18" value="&lt;font style=&quot;vertical-align: inherit&quot;&gt;&lt;font style=&quot;vertical-align: inherit&quot;&gt;观看广告后跳关或复活&lt;/font&gt;&lt;/font&gt;" style="rounded=0;whiteSpace=wrap;html=1;" vertex="1" parent="1">
          <mxGeometry x="650" y="480" width="130" height="60" as="geometry" />
        </mxCell>
        <mxCell id="i5QBsUKs3waU7UuBkeqk-25" style="edgeStyle=orthogonalEdgeStyle;rounded=0;orthogonalLoop=1;jettySize=auto;html=1;entryX=0.5;entryY=1;entryDx=0;entryDy=0;" edge="1" parent="1" source="i5QBsUKs3waU7UuBkeqk-21" target="EWtavilVzIh3BYYIPG3K-1">
          <mxGeometry relative="1" as="geometry" />
        </mxCell>
        <mxCell id="i5QBsUKs3waU7UuBkeqk-29" style="edgeStyle=orthogonalEdgeStyle;rounded=0;orthogonalLoop=1;jettySize=auto;html=1;entryX=0.5;entryY=1;entryDx=0;entryDy=0;" edge="1" parent="1" source="i5QBsUKs3waU7UuBkeqk-21" target="i5QBsUKs3waU7UuBkeqk-2">
          <mxGeometry relative="1" as="geometry" />
        </mxCell>
        <mxCell id="i5QBsUKs3waU7UuBkeqk-21" value="&lt;font style=&quot;vertical-align: inherit&quot;&gt;&lt;font style=&quot;vertical-align: inherit&quot;&gt;是否重新开始游戏&lt;/font&gt;&lt;/font&gt;" style="rhombus;whiteSpace=wrap;html=1;" vertex="1" parent="1">
          <mxGeometry x="375" y="330" width="130" height="80" as="geometry" />
        </mxCell>
        <mxCell id="i5QBsUKs3waU7UuBkeqk-33" value="&lt;font style=&quot;vertical-align: inherit&quot;&gt;&lt;font style=&quot;vertical-align: inherit&quot;&gt;&lt;font style=&quot;vertical-align: inherit&quot;&gt;&lt;font style=&quot;vertical-align: inherit&quot;&gt;下一关卡界面&lt;/font&gt;&lt;/font&gt;&lt;/font&gt;&lt;/font&gt;" style="rounded=0;whiteSpace=wrap;html=1;" vertex="1" parent="1">
          <mxGeometry x="925" y="600" width="120" height="60" as="geometry" />
        </mxCell>
      </root>
    </mxGraphModel>
  </diagram>
</mxfile>
